<?xml version="1.0" encoding="UTF-8"?>
<svg width="1920" height="600" viewBox="0 0 1920 600" xmlns="http://www.w3.org/2000/svg">
  <defs>
    <linearGradient id="bg" x1="0%" y1="0%" x2="100%" y2="100%">
      <stop offset="0%" style="stop-color:#1976d2;stop-opacity:1" />
      <stop offset="100%" style="stop-color:#0d47a1;stop-opacity:1" />
    </linearGradient>
    <filter id="noise" x="0" y="0" width="100%" height="100%">
      <feTurbulence type="fractalNoise" baseFrequency="0.5" numOctaves="2" result="noise" />
      <feComposite in="noise" in2="SourceGraphic" operator="arithmetic" k1="0" k2="0.1" k3="0" k4="0" />
    </filter>
  </defs>
  
  <!-- Background -->
  <rect width="100%" height="100%" fill="url(#bg)" />
  
  <!-- Code Elements -->
  <g opacity="0.1" fill="#ffffff">
    <text x="100" y="100" font-family="monospace" font-size="14">&lt;div class="innovation"&gt;</text>
    <text x="120" y="130" font-family="monospace" font-size="14">const future = await transform(business);</text>
    <text x="100" y="160" font-family="monospace" font-size="14">&lt;/div&gt;</text>
    
    <text x="400" y="200" font-family="monospace" font-size="14">function innovate() {</text>
    <text x="420" y="230" font-family="monospace" font-size="14">return solutions.map(idea => optimize(idea));</text>
    <text x="400" y="260" font-family="monospace" font-size="14">}</text>
    
    <text x="700" y="300" font-family="monospace" font-size="14">class DigitalTransformation {</text>
    <text x="720" y="330" font-family="monospace" font-size="14">constructor(vision, technology) {</text>
    <text x="740" y="360" font-family="monospace" font-size="14">this.future = new Future(vision, technology);</text>
    <text x="720" y="390" font-family="monospace" font-size="14">}</text>
    <text x="700" y="420" font-family="monospace" font-size="14">}</text>
  </g>
  
  <!-- Abstract Shapes -->
  <g opacity="0.2">
    <circle cx="200" cy="500" r="50" fill="#ffffff" />
    <rect x="400" y="450" width="100" height="100" fill="#ffffff" transform="rotate(45 450 500)" />
    <polygon points="700,450 750,550 650,550" fill="#ffffff" />
  </g>
  
  <!-- Connection Lines -->
  <g stroke="#ffffff" stroke-width="1" opacity="0.1">
    <line x1="250" y1="500" x2="400" y2="500" />
    <line x1="500" y1="500" x2="650" y2="500" />
    <line x1="750" y1="500" x2="900" y2="500" />
  </g>
  
  <!-- Apply noise filter -->
  <rect width="100%" height="100%" fill="none" filter="url(#noise)" />
</svg>